
<svg xmlns="http://www.w3.org/2000/svg" version="1.1" xmlns:xlink="http://www.w3.org/1999/xlink" preserveAspectRatio="none" x="0px" y="0px" width="730px" height="340px" viewBox="0 0 730 340">
<defs>
<g id="Layer2_0_FILL">
<path fill="#3399CC" stroke="none" d="
M 586.6 60
L 536.6 194.75 486.6 60 436.55 195 452.4 237.85 486.6 145.2 536.6 280 586.6 145.2 636.7 280 668.35 280 586.6 60 Z"/>
</g>

<g id="Layer1_0_FILL">
<path fill="#3399CC" stroke="none" d="
M 404.95 279.95
L 436.6 279.95 355 60 273.45 279.95 305.1 279.95 355 145.25 404.95 279.95 Z"/>
</g>

<g id="Layer0_0_FILL">
<path fill="#3399CC" stroke="none" d="
M 323.35 60
L 291.5 60 241.75 194.8 191.75 60 141.75 194.8 91.65 60 60 60 141.75 280 191.75 145.25 241.75 280 323.35 60 Z"/>
</g>
</defs>

<g transform="matrix( 1, 0, 0, 1, 0,0) ">
<use xlink:href="#Layer2_0_FILL"/>
</g>

<g transform="matrix( 1, 0, 0, 1, 0,0) ">
<use xlink:href="#Layer1_0_FILL"/>
</g>

<g transform="matrix( 1, 0, 0, 1, 0,0) ">
<use xlink:href="#Layer0_0_FILL"/>
</g>
</svg>
