
<svg xmlns="http://www.w3.org/2000/svg" version="1.1" xmlns:xlink="http://www.w3.org/1999/xlink" preserveAspectRatio="none" x="0px" y="0px" width="800px" height="400px" viewBox="0 0 800 400">
<defs>
<g id="Layer11_0_FILL">
<path fill="#FF3399" stroke="none" d="
M 681.7 300
L 713.35 300 631.6 80 581.6 214.75 531.6 80 481.55 215 497.4 257.85 531.6 165.2 581.6 300 631.6 165.2 681.7 300 Z"/>
</g>

<g id="Layer6_0_FILL">
<path fill="#FF3399" stroke="none" d="
M 449.95 299.95
L 481.6 299.95 400 80 318.45 299.95 350.1 299.95 400 165.25 449.95 299.95 Z"/>
</g>

<g id="Layer2_0_FILL">
<path fill="#FF3399" stroke="none" d="
M 368.35 80
L 336.5 80 286.75 214.8 236.75 80 186.75 214.8 136.65 80 105 80 186.75 300 236.75 165.25 286.75 300 368.35 80 Z"/>
</g>
</defs>

<g transform="matrix( 1, 0, 0, 1, 0,0) ">
<use xlink:href="#Layer11_0_FILL"/>
</g>

<g transform="matrix( 1, 0, 0, 1, 0,0) ">
<use xlink:href="#Layer6_0_FILL"/>
</g>

<g transform="matrix( 1, 0, 0, 1, 0,0) ">
<use xlink:href="#Layer2_0_FILL"/>
</g>
</svg>
